<svg xmlns="http://www.w3.org/2000/svg" xmlns:xlink="http://www.w3.org/1999/xlink" width="500" zoomAndPan="magnify" viewBox="0 0 375 74.999997" height="100" preserveAspectRatio="xMidYMid meet" version="1.0"><defs><g/><clipPath id="4735802aee"><path d="M 0.015625 0 L 78.480469 0 L 78.480469 75 L 0.015625 75 Z M 0.015625 0 " clip-rule="nonzero"/></clipPath></defs><g clip-path="url(#4735802aee)"><path fill="#1e1e1e" d="M 35.214844 21.035156 C 34.308594 19.507812 33.148438 17.695312 33.148438 17.710938 C 33.34375 18.367188 34.238281 19.851562 34.902344 20.96875 C 34.746094 20.945312 34.589844 20.929688 34.425781 20.929688 C 33.96875 20.929688 33.53125 21.035156 33.144531 21.222656 C 32.101562 19.816406 31.363281 18.191406 31.066406 16.5 C 30.734375 14.601562 30.828125 12.671875 32.679688 14.300781 C 34.503906 15.90625 35.894531 18.085938 36.679688 20.394531 C 36.421875 20.710938 36.246094 21.089844 36.179688 21.503906 C 35.890625 21.292969 35.566406 21.132812 35.214844 21.035156 Z M 31.992188 27.542969 C 30.210938 27.5625 28.035156 27.660156 28.050781 27.664062 C 28.746094 27.832031 30.597656 27.792969 31.914062 27.777344 C 31.847656 28.007812 31.808594 28.253906 31.808594 28.507812 C 31.808594 28.78125 31.851562 29.050781 31.929688 29.300781 C 29.929688 29.667969 27.835938 29.542969 25.964844 28.855469 C 24.144531 28.195312 22.515625 27.148438 24.855469 26.367188 C 27.238281 25.566406 29.925781 25.476562 32.390625 26.007812 C 32.539062 26.152344 32.707031 26.28125 32.886719 26.390625 C 32.777344 26.46875 32.675781 26.554688 32.582031 26.648438 C 32.328125 26.902344 32.128906 27.207031 31.992188 27.542969 Z M 46.4375 26.632812 C 48.230469 26.617188 50.453125 26.515625 50.441406 26.511719 C 49.710938 26.339844 47.695312 26.390625 46.375 26.402344 C 46.257812 26.019531 46.042969 25.675781 45.765625 25.398438 C 45.671875 25.300781 45.566406 25.214844 45.453125 25.136719 C 47.773438 24.484375 50.308594 24.511719 52.53125 25.320312 C 54.351562 25.984375 55.980469 27.03125 53.636719 27.8125 C 51.296875 28.59375 48.664062 28.695312 46.234375 28.195312 C 46.394531 27.875 46.484375 27.507812 46.484375 27.125 C 46.484375 26.957031 46.464844 26.792969 46.4375 26.632812 Z M 42.773438 20.070312 C 43.566406 18.644531 44.351562 17.128906 44.34375 17.136719 C 43.898438 17.605469 43.121094 18.984375 42.5 20.085938 C 42.253906 20.113281 42.011719 20.171875 41.789062 20.257812 C 42.054688 19.167969 42.335938 17.832031 42.371094 16.929688 C 42.933594 16.109375 43.597656 15.367188 44.351562 14.734375 C 45.839844 13.496094 47.558594 12.613281 47.074219 15.023438 C 46.664062 17.035156 45.746094 18.976562 44.5 20.636719 C 44.027344 20.28125 43.4375 20.070312 42.800781 20.070312 Z M 38.746094 19.476562 C 38.953125 16.859375 39.046875 13.101562 38.898438 12.019531 C 38.894531 12.019531 38.589844 16.488281 38.359375 19.484375 C 37.796875 19.539062 37.289062 19.785156 36.898438 20.15625 C 36.683594 19.222656 36.328125 18.183594 36.003906 17.65625 C 35.601562 17 35.613281 14.894531 35.921875 13.421875 C 36.417969 11.09375 37.5625 8.242188 38.925781 6.917969 C 39.050781 6.875 39.230469 7.191406 39.398438 7.421875 C 39.792969 7.957031 40.246094 8.871094 40.644531 9.769531 C 42.085938 13 42.316406 16.289062 41.671875 19.808594 C 41.632812 20 41.59375 20.183594 41.550781 20.359375 C 41.28125 20.492188 41.035156 20.671875 40.820312 20.878906 C 40.699219 20.625 40.53125 20.390625 40.332031 20.191406 C 39.921875 19.78125 39.363281 19.515625 38.746094 19.476562 Z M 31.558594 23.164062 C 29.46875 21.773438 26.875 20.214844 25.984375 19.859375 C 25.980469 19.859375 29.058594 21.917969 31.488281 23.566406 C 31.476562 23.667969 31.46875 23.773438 31.46875 23.875 C 31.46875 24.511719 31.675781 25.101562 32.019531 25.585938 C 31.140625 25.328125 30.078125 25.152344 29.429688 25.167969 C 28.664062 25.191406 26.835938 24.125 25.714844 23.121094 C 23.9375 21.53125 22.035156 19.117188 21.566406 17.28125 C 21.589844 17.152344 21.957031 17.15625 22.242188 17.121094 C 22.902344 17.046875 23.921875 17.113281 24.902344 17.21875 C 27.410156 17.484375 29.636719 18.292969 31.695312 19.570312 C 31.800781 19.785156 31.914062 19.996094 32.03125 20.203125 C 32.269531 20.613281 32.554688 21 32.875 21.371094 C 32.679688 21.492188 32.5 21.632812 32.335938 21.792969 C 31.964844 22.164062 31.691406 22.632812 31.558594 23.164062 Z M 33.59375 30.996094 C 31.222656 32.070312 27.285156 34.179688 26.332031 34.921875 C 26.332031 34.925781 31.660156 32.320312 34.199219 31.125 C 34.28125 31.132812 34.363281 31.136719 34.445312 31.136719 C 34.65625 31.136719 34.863281 31.113281 35.058594 31.0625 C 35.058594 31.109375 35.054688 31.15625 35.054688 31.199219 C 35.054688 31.441406 35.09375 31.675781 35.160156 31.894531 C 34.40625 32.355469 33.121094 33.777344 32.671875 34.601562 C 32.304688 35.277344 30.46875 36.324219 29.035156 36.789062 C 26.761719 37.527344 23.71875 37.964844 21.886719 37.449219 C 21.78125 37.363281 21.972656 37.046875 22.085938 36.789062 C 22.351562 36.179688 22.917969 35.335938 23.5 34.539062 C 24.984375 32.507812 26.800781 30.988281 28.941406 29.851562 C 29.117188 29.859375 29.289062 29.867188 29.464844 29.871094 C 30.265625 29.890625 31.175781 29.828125 32.074219 29.660156 C 32.203125 29.921875 32.375 30.160156 32.582031 30.367188 C 32.863281 30.648438 33.210938 30.867188 33.59375 30.996094 Z M 37.8125 33.53125 C 37.207031 35.816406 35.929688 37.953125 34.140625 39.441406 C 32.65625 40.679688 30.929688 41.566406 31.421875 39.152344 C 31.953125 36.550781 33.335938 34.050781 35.1875 32.144531 L 35.234375 32.097656 C 35.355469 32.386719 35.53125 32.652344 35.746094 32.867188 C 35.886719 33.007812 36.042969 33.128906 36.214844 33.226562 C 35.300781 34.820312 34.136719 37.054688 34.148438 37.042969 C 34.703125 36.457031 35.773438 34.457031 36.421875 33.339844 C 36.726562 33.480469 37.066406 33.558594 37.425781 33.558594 C 37.558594 33.558594 37.683594 33.550781 37.8125 33.53125 Z M 39.898438 33.210938 C 39.589844 35.589844 39.410156 40.84375 39.597656 42.15625 C 39.597656 42.15625 39.996094 36.28125 40.226562 33.484375 C 40.605469 33.75 41.042969 33.929688 41.519531 33.992188 C 41.648438 34.507812 41.835938 35.023438 42.027344 35.511719 C 42.175781 35.882812 42.242188 36.125 42.484375 36.523438 C 42.890625 37.175781 42.878906 39.285156 42.566406 40.753906 C 42.121094 42.859375 41.144531 45.386719 39.957031 46.832031 C 39.453125 47.441406 39.535156 47.355469 39.089844 46.753906 C 38.695312 46.21875 38.246094 45.304688 37.84375 44.410156 C 36.820312 42.113281 36.410156 39.78125 36.492188 37.363281 C 36.625 37.167969 36.75 36.964844 36.871094 36.761719 C 37.59375 35.527344 37.917969 34.375 38.058594 33.476562 C 38.457031 33.363281 38.816406 33.152344 39.101562 32.867188 C 39.203125 32.769531 39.292969 32.65625 39.375 32.539062 C 39.507812 32.773438 39.671875 32.984375 39.855469 33.171875 C 39.871094 33.1875 39.882812 33.199219 39.898438 33.210938 Z M 44.644531 32.09375 C 46.058594 33.671875 47.066406 35.628906 47.425781 37.671875 C 47.757812 39.578125 47.667969 41.503906 45.8125 39.875 C 44.054688 38.324219 42.695312 36.238281 41.898438 34.019531 L 41.90625 34.019531 C 42.5 34.019531 43.054688 33.839844 43.515625 33.535156 C 44.375 34.960938 45.347656 36.480469 45.34375 36.46875 C 45.160156 35.847656 44.351562 34.488281 43.703125 33.398438 C 43.792969 33.328125 43.878906 33.253906 43.960938 33.171875 C 44.261719 32.871094 44.5 32.503906 44.644531 32.09375 Z M 44.730469 29.464844 C 46.542969 30.878906 51.238281 33.8125 52.511719 34.320312 C 52.511719 34.320312 47.34375 30.859375 45.113281 29.316406 C 45.355469 29.195312 45.578125 29.039062 45.765625 28.847656 C 45.882812 28.738281 45.984375 28.613281 46.070312 28.476562 C 46.664062 28.6875 47.328125 28.804688 47.953125 28.898438 C 48.351562 28.957031 48.589844 29.019531 49.0625 29.007812 C 49.832031 28.988281 51.65625 30.050781 52.777344 31.050781 C 54.554688 32.644531 56.460938 35.058594 56.925781 36.898438 C 56.90625 37.027344 56.535156 37.023438 56.253906 37.054688 C 55.59375 37.128906 54.570312 37.0625 53.59375 36.957031 C 51.085938 36.695312 48.859375 35.882812 46.796875 34.605469 C 46.242188 33.480469 45.53125 32.640625 44.71875 31.863281 C 44.777344 31.625 44.8125 31.378906 44.8125 31.125 C 44.8125 30.542969 44.636719 30 44.339844 29.546875 C 44.472656 29.53125 44.605469 29.503906 44.730469 29.464844 Z M 34.445312 26.625 C 35.488281 26.625 36.332031 27.46875 36.332031 28.507812 C 36.332031 29.546875 35.488281 30.390625 34.445312 30.390625 C 33.402344 30.390625 32.558594 29.546875 32.558594 28.507812 C 32.558594 27.46875 33.402344 26.625 34.445312 26.625 Z M 34.425781 21.675781 C 35.648438 21.675781 36.636719 22.660156 36.636719 23.875 C 36.636719 25.09375 35.648438 26.078125 34.425781 26.078125 C 33.207031 26.078125 32.21875 25.09375 32.21875 23.875 C 32.21875 22.660156 33.207031 21.675781 34.425781 21.675781 Z M 38.597656 20.21875 C 39.539062 20.21875 40.304688 20.984375 40.304688 21.921875 C 40.304688 22.863281 39.539062 23.625 38.597656 23.625 C 37.652344 23.625 36.890625 22.863281 36.890625 21.921875 C 36.890625 20.984375 37.652344 20.21875 38.597656 20.21875 Z M 42.800781 20.816406 C 43.945312 20.816406 44.878906 21.742188 44.878906 22.882812 C 44.878906 24.027344 43.945312 24.953125 42.800781 24.953125 C 41.65625 24.953125 40.726562 24.027344 40.726562 22.882812 C 40.726562 21.742188 41.65625 20.816406 42.800781 20.816406 Z M 44.035156 25.429688 C 44.976562 25.429688 45.734375 26.1875 45.734375 27.125 C 45.734375 28.0625 44.976562 28.820312 44.035156 28.820312 C 43.09375 28.820312 42.335938 28.0625 42.335938 27.125 C 42.335938 26.1875 43.09375 25.429688 44.035156 25.429688 Z M 41.90625 28.980469 C 43.097656 28.980469 44.0625 29.941406 44.0625 31.125 C 44.0625 32.3125 43.097656 33.273438 41.90625 33.273438 C 40.71875 33.273438 39.753906 32.3125 39.753906 31.125 C 39.753906 29.941406 40.71875 28.980469 41.90625 28.980469 Z M 37.425781 29.582031 C 38.320312 29.582031 39.046875 30.304688 39.046875 31.199219 C 39.046875 32.09375 38.320312 32.8125 37.425781 32.8125 C 36.53125 32.8125 35.800781 32.09375 35.800781 31.199219 C 35.800781 30.304688 36.53125 29.582031 37.425781 29.582031 Z M 39.109375 24.027344 C 40.570312 24.027344 41.753906 25.210938 41.753906 26.667969 C 41.753906 28.125 40.570312 29.304688 39.109375 29.304688 C 37.648438 29.304688 36.464844 28.125 36.464844 26.667969 C 36.464844 25.210938 37.648438 24.027344 39.109375 24.027344 Z M 17.796875 71.679688 C 15.875 70.601562 14.117188 69.320312 12.660156 67.945312 C 11.34375 66.703125 10.132812 65.382812 9.035156 64.066406 C 7.417969 62.121094 5.980469 60.003906 4.746094 57.730469 C 3.546875 55.515625 2.542969 53.148438 1.769531 50.652344 C 1 48.152344 0.484375 45.640625 0.226562 43.132812 C -0.0429688 40.5625 -0.0546875 38.003906 0.183594 35.492188 C 0.421875 32.925781 0.917969 30.40625 1.648438 27.96875 C 2.382812 25.5 3.363281 23.121094 4.5625 20.855469 C 5.761719 18.585938 7.183594 16.4375 8.808594 14.441406 C 10.417969 12.464844 12.230469 10.636719 14.21875 8.992188 C 16.167969 7.382812 18.292969 5.945312 20.570312 4.71875 C 22.796875 3.523438 25.164062 2.523438 27.671875 1.753906 C 30.175781 0.980469 32.703125 0.46875 35.214844 0.210938 C 37.792969 -0.0585938 40.359375 -0.0664062 42.878906 0.167969 C 45.453125 0.40625 47.980469 0.898438 50.425781 1.628906 C 52.898438 2.363281 55.289062 3.339844 57.558594 4.535156 C 59.832031 5.730469 61.988281 7.148438 63.992188 8.769531 C 65.976562 10.375 67.808594 12.179688 69.457031 14.160156 C 71.078125 16.101562 72.515625 18.222656 73.746094 20.492188 C 74.945312 22.710938 75.949219 25.074219 76.722656 27.574219 C 77.496094 30.070312 78.003906 32.585938 78.269531 35.09375 C 78.539062 37.660156 78.546875 40.222656 78.3125 42.734375 C 78.070312 45.300781 77.574219 47.816406 76.847656 50.257812 C 76.109375 52.722656 75.128906 55.105469 73.933594 57.371094 C 72.875 59.359375 71.65625 61.253906 70.273438 63.039062 C 66.976562 67.296875 62.832031 70.828125 58.097656 73.410156 L 58.199219 73.335938 C 68.796875 65.890625 75.949219 54.609375 76.742188 41.597656 C 77.015625 37.125 76.503906 32.550781 75.113281 28.066406 C 74.375 25.675781 73.417969 23.414062 72.265625 21.292969 C 71.089844 19.117188 69.710938 17.089844 68.164062 15.230469 C 66.585938 13.332031 64.828125 11.605469 62.929688 10.070312 C 61.015625 8.519531 58.953125 7.164062 56.773438 6.019531 C 54.601562 4.875 52.3125 3.941406 49.949219 3.234375 C 47.605469 2.539062 45.1875 2.070312 42.722656 1.839844 C 40.308594 1.613281 37.851562 1.621094 35.382812 1.878906 C 32.980469 2.128906 30.566406 2.617188 28.167969 3.355469 C 23.308594 4.851562 18.976562 7.238281 15.289062 10.285156 C 11.460938 13.449219 8.335938 17.320312 6.050781 21.636719 C 4.902344 23.804688 3.964844 26.085938 3.257812 28.445312 C 2.5625 30.777344 2.089844 33.1875 1.859375 35.644531 C 1.632812 38.054688 1.640625 40.5 1.898438 42.960938 C 2.148438 45.359375 2.636719 47.765625 3.378906 50.15625 C 4.117188 52.546875 5.078125 54.8125 6.226562 56.933594 C 7.382812 59.066406 8.933594 61.339844 10.730469 63.476562 C 12.175781 65.199219 13.949219 66.925781 15.96875 68.449219 C 17.851562 69.867188 20.183594 71.214844 22.664062 72.15625 C 27.257812 73.898438 31.789062 73.894531 34.839844 71.945312 C 38.988281 69.289062 39.011719 64.125 38.074219 59.808594 C 37.75 58.3125 37.296875 56.875 36.796875 55.625 C 34.613281 50.164062 30.566406 45.984375 23.984375 42.25 C 23.246094 41.832031 22.859375 41.628906 23.195312 41.429688 C 24.828125 40.476562 35.339844 43.625 38.414062 56.3125 C 38.460938 56.492188 38.546875 56.839844 38.589844 57.027344 C 38.570312 53.414062 38.652344 50.011719 38.761719 47.1875 C 39.109375 47.664062 39.664062 47.929688 40.160156 47.441406 C 40.023438 51.320312 39.949219 56.210938 40.097656 61.605469 C 40.117188 62.183594 40.148438 62.769531 40.183594 63.363281 C 43.011719 49.246094 54.503906 45.757812 56.246094 46.777344 C 56.597656 46.984375 56.191406 47.195312 55.425781 47.628906 C 47.71875 52 43.386719 56.925781 41.367188 63.75 C 41.050781 64.816406 40.761719 65.796875 40.441406 66.714844 C 39.351562 69.804688 37.640625 71.988281 35.476562 73.332031 C 30.199219 76.609375 22.851562 74.523438 17.796875 71.679688 Z M 45.625 22.839844 C 48.003906 21.710938 51.300781 19.925781 52.160156 19.253906 C 52.160156 19.253906 48.300781 21.136719 45.589844 22.4375 C 45.496094 21.851562 45.21875 21.324219 44.824219 20.921875 C 45.246094 20.445312 45.617188 19.949219 45.820312 19.574219 C 46.1875 18.898438 48.023438 17.855469 49.453125 17.386719 C 51.726562 16.648438 54.773438 16.210938 56.609375 16.730469 C 56.707031 16.8125 56.523438 17.128906 56.40625 17.390625 C 56.140625 17.996094 55.570312 18.84375 54.992188 19.636719 C 53.507812 21.667969 51.691406 23.1875 49.550781 24.328125 C 49.3125 24.3125 49.074219 24.304688 48.832031 24.304688 C 47.628906 24.296875 46.339844 24.597656 45.167969 24.960938 C 45.066406 24.910156 44.960938 24.859375 44.851562 24.820312 C 45.328125 24.316406 45.625 23.636719 45.625 22.882812 C 45.625 22.867188 45.625 22.855469 45.625 22.839844 " fill-opacity="1" fill-rule="nonzero"/></g><g fill="#000000" fill-opacity="1"><g transform="translate(80.995878, 56.603447)"><g><path d="M 20.71875 -21.421875 C 21.101562 -21.296875 21.398438 -21.070312 21.609375 -20.75 C 21.828125 -20.425781 21.914062 -20.078125 21.875 -19.703125 L 19.0625 -1.09375 C 18.976562 -0.664062 18.765625 -0.320312 18.421875 -0.0625 C 18.078125 0.1875 17.691406 0.269531 17.265625 0.1875 C 16.796875 0.144531 16.429688 -0.0507812 16.171875 -0.40625 C 15.921875 -0.769531 15.835938 -1.164062 15.921875 -1.59375 L 17.328125 -10.75 C 16.265625 -8.957031 15.082031 -7.21875 13.78125 -5.53125 C 12.476562 -3.84375 11.125 -2.457031 9.71875 -1.375 C 8.3125 -0.289062 6.90625 0.25 5.5 0.25 C 5.238281 0.25 5.003906 0.226562 4.796875 0.1875 C 3.265625 -0.0195312 2.242188 -1 1.734375 -2.75 C 1.347656 -4.113281 1.320312 -5.765625 1.65625 -7.703125 C 2 -9.640625 2.710938 -11.617188 3.796875 -13.640625 C 4.890625 -15.671875 6.3125 -17.476562 8.0625 -19.0625 C 10.28125 -21.019531 12.492188 -21.804688 14.703125 -21.421875 C 15.472656 -21.296875 16.164062 -21.0625 16.78125 -20.71875 C 17.40625 -20.375 17.953125 -19.988281 18.421875 -19.5625 C 18.546875 -19.863281 18.691406 -20.1875 18.859375 -20.53125 C 19.242188 -21.382812 19.863281 -21.679688 20.71875 -21.421875 Z M 5.25 -2.9375 C 6.269531 -2.8125 7.84375 -3.820312 9.96875 -5.96875 C 12.101562 -8.125 14.429688 -11.65625 16.953125 -16.5625 C 16.648438 -16.90625 16.265625 -17.253906 15.796875 -17.609375 C 15.328125 -17.972656 14.796875 -18.203125 14.203125 -18.296875 C 14.023438 -18.335938 13.851562 -18.359375 13.6875 -18.359375 C 12.625 -18.359375 11.453125 -17.800781 10.171875 -16.6875 C 8.679688 -15.320312 7.488281 -13.796875 6.59375 -12.109375 C 5.695312 -10.429688 5.097656 -8.820312 4.796875 -7.28125 C 4.492188 -5.75 4.472656 -4.535156 4.734375 -3.640625 C 4.773438 -3.554688 4.835938 -3.414062 4.921875 -3.21875 C 5.003906 -3.03125 5.113281 -2.9375 5.25 -2.9375 Z M 5.25 -2.9375 "/></g></g></g><g fill="#000000" fill-opacity="1"><g transform="translate(104.465248, 56.603447)"><g><path d="M 7.484375 -18.15625 C 7.054688 -17.945312 6.773438 -17.722656 6.640625 -17.484375 C 6.515625 -17.253906 6.453125 -17.03125 6.453125 -16.8125 C 6.328125 -16.132812 6.671875 -15.503906 7.484375 -14.921875 C 8.296875 -14.347656 9.617188 -13.660156 11.453125 -12.859375 C 13.023438 -12.171875 14.21875 -11.429688 15.03125 -10.640625 C 15.84375 -9.859375 16.394531 -9.101562 16.6875 -8.375 C 16.988281 -7.65625 17.160156 -7.0625 17.203125 -6.59375 C 17.328125 -4.757812 16.601562 -3.328125 15.03125 -2.296875 C 13.582031 -1.398438 11.984375 -0.953125 10.234375 -0.953125 C 9.421875 -0.953125 8.65625 -1.039062 7.9375 -1.21875 C 5.207031 -1.9375 3.140625 -3.660156 1.734375 -6.390625 C 1.515625 -6.773438 1.46875 -7.179688 1.59375 -7.609375 C 1.726562 -8.035156 1.984375 -8.332031 2.359375 -8.5 C 2.742188 -8.71875 3.148438 -8.757812 3.578125 -8.625 C 4.003906 -8.5 4.304688 -8.242188 4.484375 -7.859375 C 5.503906 -5.941406 6.910156 -4.75 8.703125 -4.28125 C 10.359375 -3.851562 11.890625 -4.085938 13.296875 -4.984375 C 13.859375 -5.328125 14.113281 -5.773438 14.0625 -6.328125 C 14.019531 -6.972656 13.65625 -7.613281 12.96875 -8.25 C 12.289062 -8.882812 11.359375 -9.460938 10.171875 -9.984375 C 9.054688 -10.492188 7.929688 -11.054688 6.796875 -11.671875 C 5.671875 -12.285156 4.753906 -13.050781 4.046875 -13.96875 C 3.347656 -14.882812 3.109375 -16.003906 3.328125 -17.328125 C 3.578125 -18.953125 4.472656 -20.144531 6.015625 -20.90625 C 7.296875 -21.59375 8.773438 -21.90625 10.453125 -21.84375 C 12.140625 -21.78125 13.535156 -21.492188 14.640625 -20.984375 C 16.390625 -20.128906 17.691406 -19.164062 18.546875 -18.09375 C 18.804688 -17.757812 18.898438 -17.378906 18.828125 -16.953125 C 18.765625 -16.523438 18.566406 -16.179688 18.234375 -15.921875 C 17.890625 -15.628906 17.503906 -15.515625 17.078125 -15.578125 C 16.648438 -15.640625 16.304688 -15.84375 16.046875 -16.1875 C 15.835938 -16.394531 15.53125 -16.664062 15.125 -17 C 14.71875 -17.34375 14.109375 -17.707031 13.296875 -18.09375 C 12.578125 -18.4375 11.617188 -18.628906 10.421875 -18.671875 C 9.234375 -18.710938 8.253906 -18.539062 7.484375 -18.15625 Z M 7.484375 -18.15625 "/></g></g></g><g fill="#000000" fill-opacity="1"><g transform="translate(124.545302, 56.603447)"><g><path d="M 19.1875 -20.78125 C 19.78125 -20.4375 20.28125 -19.632812 20.6875 -18.375 C 21.09375 -17.125 21.242188 -15.125 21.140625 -12.375 C 21.035156 -9.625 20.488281 -5.863281 19.5 -1.09375 C 19.414062 -0.664062 19.191406 -0.320312 18.828125 -0.0625 C 18.472656 0.1875 18.082031 0.269531 17.65625 0.1875 C 17.226562 0.101562 16.894531 -0.113281 16.65625 -0.46875 C 16.425781 -0.832031 16.351562 -1.226562 16.4375 -1.65625 C 16.945312 -4.21875 17.335938 -6.679688 17.609375 -9.046875 C 17.890625 -11.410156 18.019531 -13.425781 18 -15.09375 C 17.976562 -16.757812 17.816406 -17.757812 17.515625 -18.09375 C 17.003906 -18.394531 16.429688 -18.441406 15.796875 -18.234375 C 14.773438 -17.847656 13.726562 -17.023438 12.65625 -15.765625 C 11.59375 -14.503906 10.550781 -12.988281 9.53125 -11.21875 C 8.507812 -9.445312 7.570312 -7.644531 6.71875 -5.8125 C 5.863281 -3.976562 5.160156 -2.316406 4.609375 -0.828125 C 4.347656 -0.148438 3.859375 0.1875 3.140625 0.1875 C 3.003906 0.1875 2.875 0.164062 2.75 0.125 C 2.320312 0.0390625 2 -0.164062 1.78125 -0.5 C 1.570312 -0.84375 1.507812 -1.226562 1.59375 -1.65625 L 8.25 -42.71875 C 8.332031 -43.144531 8.554688 -43.484375 8.921875 -43.734375 C 9.285156 -43.992188 9.679688 -44.082031 10.109375 -44 C 10.535156 -43.914062 10.875 -43.703125 11.125 -43.359375 C 11.382812 -43.015625 11.472656 -42.628906 11.390625 -42.203125 L 6.515625 -12.34375 C 7.671875 -14.300781 8.941406 -16.125 10.328125 -17.8125 C 11.710938 -19.5 13.171875 -20.617188 14.703125 -21.171875 C 16.285156 -21.722656 17.78125 -21.59375 19.1875 -20.78125 Z M 19.1875 -20.78125 "/></g></g></g><g fill="#000000" fill-opacity="1"><g transform="translate(148.270458, 56.603447)"><g><path d="M 16.4375 -6.140625 C 16.78125 -6.390625 17.164062 -6.503906 17.59375 -6.484375 C 18.019531 -6.460938 18.378906 -6.285156 18.671875 -5.953125 C 18.972656 -5.609375 19.101562 -5.222656 19.0625 -4.796875 C 19.019531 -4.367188 18.828125 -4.003906 18.484375 -3.703125 C 17.546875 -2.898438 16.363281 -2.132812 14.9375 -1.40625 C 13.507812 -0.675781 11.921875 -0.3125 10.171875 -0.3125 C 9.660156 -0.3125 9.148438 -0.359375 8.640625 -0.453125 C 6.242188 -0.785156 4.429688 -1.976562 3.203125 -4.03125 C 2.472656 -5.269531 2.066406 -6.675781 1.984375 -8.25 C 1.941406 -8.375 1.921875 -8.503906 1.921875 -8.640625 C 1.921875 -8.640625 1.941406 -8.660156 1.984375 -8.703125 C 1.941406 -10.234375 2.21875 -11.832031 2.8125 -13.5 C 3.445312 -15.15625 4.445312 -16.664062 5.8125 -18.03125 C 7.175781 -19.394531 8.773438 -20.441406 10.609375 -21.171875 C 11.890625 -21.679688 13.113281 -21.96875 14.28125 -22.03125 C 15.457031 -22.09375 16.453125 -21.910156 17.265625 -21.484375 C 18.753906 -20.765625 19.566406 -19.632812 19.703125 -18.09375 C 19.785156 -16.988281 19.472656 -15.835938 18.765625 -14.640625 C 18.066406 -13.453125 17.035156 -12.320312 15.671875 -11.25 C 13.578125 -9.71875 11.613281 -8.648438 9.78125 -8.046875 C 7.945312 -7.453125 6.457031 -7.113281 5.3125 -7.03125 C 5.476562 -6.519531 5.671875 -6.050781 5.890625 -5.625 C 6.609375 -4.4375 7.671875 -3.753906 9.078125 -3.578125 C 10.617188 -3.328125 12.023438 -3.507812 13.296875 -4.125 C 14.578125 -4.738281 15.625 -5.410156 16.4375 -6.140625 Z M 5.8125 -12.40625 C 5.519531 -11.675781 5.332031 -10.929688 5.25 -10.171875 C 6.1875 -10.296875 7.410156 -10.601562 8.921875 -11.09375 C 10.429688 -11.582031 12.039062 -12.488281 13.75 -13.8125 C 14.769531 -14.582031 15.492188 -15.328125 15.921875 -16.046875 C 16.347656 -16.773438 16.5625 -17.375 16.5625 -17.84375 C 16.519531 -17.925781 16.457031 -18.050781 16.375 -18.21875 C 16.289062 -18.394531 16.097656 -18.546875 15.796875 -18.671875 C 15.585938 -18.796875 15.242188 -18.859375 14.765625 -18.859375 C 14.390625 -18.859375 13.941406 -18.804688 13.421875 -18.703125 C 12.910156 -18.597656 12.359375 -18.441406 11.765625 -18.234375 C 10.359375 -17.671875 9.128906 -16.878906 8.078125 -15.859375 C 7.035156 -14.835938 6.28125 -13.6875 5.8125 -12.40625 Z M 5.8125 -12.40625 "/></g></g></g><g fill="#000000" fill-opacity="1"><g transform="translate(169.88529, 56.603447)"><g><path d="M 19.953125 -20.53125 C 20.640625 -19.9375 21.097656 -18.921875 21.328125 -17.484375 C 21.566406 -16.054688 21.628906 -14.394531 21.515625 -12.5 C 21.410156 -10.601562 21.226562 -8.695312 20.96875 -6.78125 C 20.71875 -4.863281 20.441406 -3.15625 20.140625 -1.65625 C 20.097656 -1.226562 19.894531 -0.882812 19.53125 -0.625 C 19.175781 -0.375 18.785156 -0.296875 18.359375 -0.390625 C 17.929688 -0.472656 17.585938 -0.691406 17.328125 -1.046875 C 17.078125 -1.410156 16.992188 -1.804688 17.078125 -2.234375 C 17.503906 -4.710938 17.832031 -7.09375 18.0625 -9.375 C 18.300781 -11.65625 18.410156 -13.582031 18.390625 -15.15625 C 18.367188 -16.726562 18.207031 -17.707031 17.90625 -18.09375 C 17.476562 -18.4375 17.007812 -18.546875 16.5 -18.421875 C 15.519531 -18.160156 14.472656 -17.421875 13.359375 -16.203125 C 12.253906 -14.992188 11.15625 -13.515625 10.0625 -11.765625 C 8.976562 -10.015625 7.957031 -8.203125 7 -6.328125 C 6.039062 -4.453125 5.242188 -2.75 4.609375 -1.21875 C 4.347656 -0.570312 3.859375 -0.25 3.140625 -0.25 C 3.003906 -0.25 2.851562 -0.269531 2.6875 -0.3125 C 2.300781 -0.445312 2 -0.679688 1.78125 -1.015625 C 1.570312 -1.359375 1.507812 -1.722656 1.59375 -2.109375 L 4.734375 -20.53125 C 4.773438 -20.957031 4.976562 -21.296875 5.34375 -21.546875 C 5.707031 -21.804688 6.097656 -21.894531 6.515625 -21.8125 C 6.941406 -21.769531 7.285156 -21.566406 7.546875 -21.203125 C 7.804688 -20.835938 7.890625 -20.441406 7.796875 -20.015625 L 6.453125 -11.890625 C 7.304688 -13.335938 8.242188 -14.742188 9.265625 -16.109375 C 10.296875 -17.472656 11.351562 -18.632812 12.4375 -19.59375 C 13.519531 -20.5625 14.617188 -21.191406 15.734375 -21.484375 C 17.265625 -21.867188 18.671875 -21.550781 19.953125 -20.53125 Z M 19.953125 -20.53125 "/></g></g></g><g fill="#000000" fill-opacity="1"><g transform="translate(194.058094, 56.603447)"><g><path d="M 16.4375 -6.140625 C 16.78125 -6.390625 17.164062 -6.503906 17.59375 -6.484375 C 18.019531 -6.460938 18.378906 -6.285156 18.671875 -5.953125 C 18.972656 -5.609375 19.101562 -5.222656 19.0625 -4.796875 C 19.019531 -4.367188 18.828125 -4.003906 18.484375 -3.703125 C 17.546875 -2.898438 16.363281 -2.132812 14.9375 -1.40625 C 13.507812 -0.675781 11.921875 -0.3125 10.171875 -0.3125 C 9.660156 -0.3125 9.148438 -0.359375 8.640625 -0.453125 C 6.242188 -0.785156 4.429688 -1.976562 3.203125 -4.03125 C 2.472656 -5.269531 2.066406 -6.675781 1.984375 -8.25 C 1.941406 -8.375 1.921875 -8.503906 1.921875 -8.640625 C 1.921875 -8.640625 1.941406 -8.660156 1.984375 -8.703125 C 1.941406 -10.234375 2.21875 -11.832031 2.8125 -13.5 C 3.445312 -15.15625 4.445312 -16.664062 5.8125 -18.03125 C 7.175781 -19.394531 8.773438 -20.441406 10.609375 -21.171875 C 11.890625 -21.679688 13.113281 -21.96875 14.28125 -22.03125 C 15.457031 -22.09375 16.453125 -21.910156 17.265625 -21.484375 C 18.753906 -20.765625 19.566406 -19.632812 19.703125 -18.09375 C 19.785156 -16.988281 19.472656 -15.835938 18.765625 -14.640625 C 18.066406 -13.453125 17.035156 -12.320312 15.671875 -11.25 C 13.578125 -9.71875 11.613281 -8.648438 9.78125 -8.046875 C 7.945312 -7.453125 6.457031 -7.113281 5.3125 -7.03125 C 5.476562 -6.519531 5.671875 -6.050781 5.890625 -5.625 C 6.609375 -4.4375 7.671875 -3.753906 9.078125 -3.578125 C 10.617188 -3.328125 12.023438 -3.507812 13.296875 -4.125 C 14.578125 -4.738281 15.625 -5.410156 16.4375 -6.140625 Z M 5.8125 -12.40625 C 5.519531 -11.675781 5.332031 -10.929688 5.25 -10.171875 C 6.1875 -10.296875 7.410156 -10.601562 8.921875 -11.09375 C 10.429688 -11.582031 12.039062 -12.488281 13.75 -13.8125 C 14.769531 -14.582031 15.492188 -15.328125 15.921875 -16.046875 C 16.347656 -16.773438 16.5625 -17.375 16.5625 -17.84375 C 16.519531 -17.925781 16.457031 -18.050781 16.375 -18.21875 C 16.289062 -18.394531 16.097656 -18.546875 15.796875 -18.671875 C 15.585938 -18.796875 15.242188 -18.859375 14.765625 -18.859375 C 14.390625 -18.859375 13.941406 -18.804688 13.421875 -18.703125 C 12.910156 -18.597656 12.359375 -18.441406 11.765625 -18.234375 C 10.359375 -17.671875 9.128906 -16.878906 8.078125 -15.859375 C 7.035156 -14.835938 6.28125 -13.6875 5.8125 -12.40625 Z M 5.8125 -12.40625 "/></g></g></g><g fill="#000000" fill-opacity="1"><g transform="translate(215.672926, 56.603447)"><g><path d="M 22.953125 -44.0625 C 23.378906 -43.976562 23.71875 -43.765625 23.96875 -43.421875 C 24.226562 -43.078125 24.316406 -42.691406 24.234375 -42.265625 L 18.03125 -1.65625 C 17.863281 -0.757812 17.332031 -0.3125 16.4375 -0.3125 C 16.351562 -0.3125 16.289062 -0.3125 16.25 -0.3125 C 15.78125 -0.363281 15.414062 -0.566406 15.15625 -0.921875 C 14.894531 -1.285156 14.8125 -1.679688 14.90625 -2.109375 L 15.921875 -8.640625 C 14.390625 -6.078125 12.769531 -4.046875 11.0625 -2.546875 C 9.351562 -1.054688 7.773438 -0.3125 6.328125 -0.3125 C 5.984375 -0.3125 5.664062 -0.335938 5.375 -0.390625 C 4.726562 -0.554688 4.039062 -0.945312 3.3125 -1.5625 C 2.59375 -2.1875 2.082031 -3.203125 1.78125 -4.609375 C 1.488281 -6.015625 1.660156 -7.972656 2.296875 -10.484375 C 2.640625 -11.847656 3.191406 -13.234375 3.953125 -14.640625 C 4.722656 -16.046875 5.640625 -17.320312 6.703125 -18.46875 C 7.773438 -19.625 8.914062 -20.53125 10.125 -21.1875 C 11.34375 -21.851562 12.550781 -22.164062 13.75 -22.125 C 14.601562 -22.082031 15.359375 -21.890625 16.015625 -21.546875 C 16.679688 -21.210938 17.25 -20.851562 17.71875 -20.46875 L 21.171875 -42.71875 C 21.210938 -43.144531 21.410156 -43.484375 21.765625 -43.734375 C 22.128906 -43.992188 22.523438 -44.101562 22.953125 -44.0625 Z M 6.140625 -3.453125 C 6.648438 -3.328125 7.488281 -3.722656 8.65625 -4.640625 C 9.832031 -5.554688 11.113281 -7.035156 12.5 -9.078125 C 13.882812 -11.128906 15.195312 -13.753906 16.4375 -16.953125 C 16.3125 -17.078125 16.203125 -17.222656 16.109375 -17.390625 C 16.066406 -17.472656 15.851562 -17.738281 15.46875 -18.1875 C 15.09375 -18.632812 14.457031 -18.90625 13.5625 -19 C 13.519531 -19 13.476562 -19 13.4375 -19 C 12.488281 -19 11.460938 -18.53125 10.359375 -17.59375 C 9.253906 -16.65625 8.234375 -15.476562 7.296875 -14.0625 C 6.359375 -12.65625 5.71875 -11.207031 5.375 -9.71875 C 5.195312 -9.164062 5.046875 -8.421875 4.921875 -7.484375 C 4.796875 -6.546875 4.804688 -5.679688 4.953125 -4.890625 C 5.109375 -4.097656 5.503906 -3.617188 6.140625 -3.453125 Z M 6.140625 -3.453125 "/></g></g></g><g fill="#000000" fill-opacity="1"><g transform="translate(238.055153, 56.603447)"><g><path d="M 16.4375 -6.140625 C 16.78125 -6.390625 17.164062 -6.503906 17.59375 -6.484375 C 18.019531 -6.460938 18.378906 -6.285156 18.671875 -5.953125 C 18.972656 -5.609375 19.101562 -5.222656 19.0625 -4.796875 C 19.019531 -4.367188 18.828125 -4.003906 18.484375 -3.703125 C 17.546875 -2.898438 16.363281 -2.132812 14.9375 -1.40625 C 13.507812 -0.675781 11.921875 -0.3125 10.171875 -0.3125 C 9.660156 -0.3125 9.148438 -0.359375 8.640625 -0.453125 C 6.242188 -0.785156 4.429688 -1.976562 3.203125 -4.03125 C 2.472656 -5.269531 2.066406 -6.675781 1.984375 -8.25 C 1.941406 -8.375 1.921875 -8.503906 1.921875 -8.640625 C 1.921875 -8.640625 1.941406 -8.660156 1.984375 -8.703125 C 1.941406 -10.234375 2.21875 -11.832031 2.8125 -13.5 C 3.445312 -15.15625 4.445312 -16.664062 5.8125 -18.03125 C 7.175781 -19.394531 8.773438 -20.441406 10.609375 -21.171875 C 11.890625 -21.679688 13.113281 -21.96875 14.28125 -22.03125 C 15.457031 -22.09375 16.453125 -21.910156 17.265625 -21.484375 C 18.753906 -20.765625 19.566406 -19.632812 19.703125 -18.09375 C 19.785156 -16.988281 19.472656 -15.835938 18.765625 -14.640625 C 18.066406 -13.453125 17.035156 -12.320312 15.671875 -11.25 C 13.578125 -9.71875 11.613281 -8.648438 9.78125 -8.046875 C 7.945312 -7.453125 6.457031 -7.113281 5.3125 -7.03125 C 5.476562 -6.519531 5.671875 -6.050781 5.890625 -5.625 C 6.609375 -4.4375 7.671875 -3.753906 9.078125 -3.578125 C 10.617188 -3.328125 12.023438 -3.507812 13.296875 -4.125 C 14.578125 -4.738281 15.625 -5.410156 16.4375 -6.140625 Z M 5.8125 -12.40625 C 5.519531 -11.675781 5.332031 -10.929688 5.25 -10.171875 C 6.1875 -10.296875 7.410156 -10.601562 8.921875 -11.09375 C 10.429688 -11.582031 12.039062 -12.488281 13.75 -13.8125 C 14.769531 -14.582031 15.492188 -15.328125 15.921875 -16.046875 C 16.347656 -16.773438 16.5625 -17.375 16.5625 -17.84375 C 16.519531 -17.925781 16.457031 -18.050781 16.375 -18.21875 C 16.289062 -18.394531 16.097656 -18.546875 15.796875 -18.671875 C 15.585938 -18.796875 15.242188 -18.859375 14.765625 -18.859375 C 14.390625 -18.859375 13.941406 -18.804688 13.421875 -18.703125 C 12.910156 -18.597656 12.359375 -18.441406 11.765625 -18.234375 C 10.359375 -17.671875 9.128906 -16.878906 8.078125 -15.859375 C 7.035156 -14.835938 6.28125 -13.6875 5.8125 -12.40625 Z M 5.8125 -12.40625 "/></g></g></g><g fill="#000000" fill-opacity="1"><g transform="translate(259.669985, 56.603447)"><g><path d="M 9.984375 -43.875 C 10.398438 -43.789062 10.738281 -43.578125 11 -43.234375 C 11.257812 -42.890625 11.34375 -42.503906 11.25 -42.078125 L 4.796875 -1.40625 C 4.671875 -0.507812 4.160156 -0.0625 3.265625 -0.0625 C 3.179688 -0.0625 3.09375 -0.0820312 3 -0.125 C 2.570312 -0.164062 2.226562 -0.367188 1.96875 -0.734375 C 1.71875 -1.097656 1.613281 -1.492188 1.65625 -1.921875 L 8.125 -42.53125 C 8.207031 -42.957031 8.429688 -43.304688 8.796875 -43.578125 C 9.160156 -43.859375 9.554688 -43.957031 9.984375 -43.875 Z M 9.984375 -43.875 "/></g></g></g><g fill="#000000" fill-opacity="1"><g transform="translate(268.942617, 56.603447)"><g><path d="M 30.5625 -22 C 30.988281 -21.957031 31.332031 -21.765625 31.59375 -21.421875 C 31.851562 -21.078125 31.957031 -20.691406 31.90625 -20.265625 C 31.90625 -20.222656 31.820312 -19.734375 31.65625 -18.796875 C 31.488281 -17.859375 31.234375 -16.664062 30.890625 -15.21875 C 30.546875 -13.769531 30.109375 -12.234375 29.578125 -10.609375 C 29.046875 -8.992188 28.382812 -7.4375 27.59375 -5.9375 C 26.800781 -4.445312 25.882812 -3.203125 24.84375 -2.203125 C 23.800781 -1.203125 22.597656 -0.640625 21.234375 -0.515625 C 20.117188 -0.429688 19.160156 -0.789062 18.359375 -1.59375 C 17.628906 -2.363281 17.09375 -3.484375 16.75 -4.953125 C 16.414062 -6.421875 16.203125 -7.988281 16.109375 -9.65625 C 14.878906 -7.09375 13.5625 -4.957031 12.15625 -3.25 C 10.75 -1.550781 9.382812 -0.507812 8.0625 -0.125 C 7.71875 -0.0390625 7.375 0 7.03125 0 C 6.09375 0 5.304688 -0.335938 4.671875 -1.015625 C 3.898438 -1.785156 3.375 -2.875 3.09375 -4.28125 C 2.820312 -5.6875 2.695312 -7.222656 2.71875 -8.890625 C 2.738281 -10.554688 2.84375 -12.195312 3.03125 -13.8125 C 3.226562 -15.4375 3.441406 -16.875 3.671875 -18.125 C 3.910156 -19.382812 4.09375 -20.269531 4.21875 -20.78125 C 4.300781 -21.207031 4.535156 -21.535156 4.921875 -21.765625 C 5.304688 -22.003906 5.710938 -22.082031 6.140625 -22 C 6.566406 -21.914062 6.894531 -21.679688 7.125 -21.296875 C 7.363281 -20.910156 7.421875 -20.503906 7.296875 -20.078125 C 6.992188 -18.671875 6.710938 -17.101562 6.453125 -15.375 C 6.203125 -13.65625 6.03125 -11.953125 5.9375 -10.265625 C 5.851562 -8.578125 5.875 -7.101562 6 -5.84375 C 6.132812 -4.59375 6.4375 -3.710938 6.90625 -3.203125 C 6.988281 -3.160156 7.097656 -3.160156 7.234375 -3.203125 C 8.035156 -3.410156 9.019531 -4.289062 10.1875 -5.84375 C 11.363281 -7.40625 12.539062 -9.460938 13.71875 -12.015625 C 14.894531 -14.578125 15.84375 -17.5 16.5625 -20.78125 C 16.644531 -21.207031 16.867188 -21.535156 17.234375 -21.765625 C 17.597656 -22.003906 17.992188 -22.082031 18.421875 -22 C 18.804688 -21.957031 19.125 -21.765625 19.375 -21.421875 C 19.632812 -21.078125 19.742188 -20.691406 19.703125 -20.265625 C 19.523438 -18.816406 19.394531 -17.25 19.3125 -15.5625 C 19.226562 -13.882812 19.207031 -12.234375 19.25 -10.609375 C 19.289062 -8.992188 19.414062 -7.578125 19.625 -6.359375 C 19.84375 -5.148438 20.164062 -4.3125 20.59375 -3.84375 C 20.71875 -3.707031 20.847656 -3.660156 20.984375 -3.703125 C 21.867188 -3.796875 22.726562 -4.394531 23.5625 -5.5 C 24.394531 -6.601562 25.160156 -8.007812 25.859375 -9.71875 C 26.566406 -11.425781 27.175781 -13.25 27.6875 -15.1875 C 28.195312 -17.125 28.5625 -18.945312 28.78125 -20.65625 C 28.820312 -21.082031 29.023438 -21.429688 29.390625 -21.703125 C 29.753906 -21.984375 30.144531 -22.082031 30.5625 -22 Z M 30.5625 -22 "/></g></g></g><g fill="#000000" fill-opacity="1"><g transform="translate(301.36487, 56.603447)"><g><path d="M 16.4375 -6.140625 C 16.78125 -6.390625 17.164062 -6.503906 17.59375 -6.484375 C 18.019531 -6.460938 18.378906 -6.285156 18.671875 -5.953125 C 18.972656 -5.609375 19.101562 -5.222656 19.0625 -4.796875 C 19.019531 -4.367188 18.828125 -4.003906 18.484375 -3.703125 C 17.546875 -2.898438 16.363281 -2.132812 14.9375 -1.40625 C 13.507812 -0.675781 11.921875 -0.3125 10.171875 -0.3125 C 9.660156 -0.3125 9.148438 -0.359375 8.640625 -0.453125 C 6.242188 -0.785156 4.429688 -1.976562 3.203125 -4.03125 C 2.472656 -5.269531 2.066406 -6.675781 1.984375 -8.25 C 1.941406 -8.375 1.921875 -8.503906 1.921875 -8.640625 C 1.921875 -8.640625 1.941406 -8.660156 1.984375 -8.703125 C 1.941406 -10.234375 2.21875 -11.832031 2.8125 -13.5 C 3.445312 -15.15625 4.445312 -16.664062 5.8125 -18.03125 C 7.175781 -19.394531 8.773438 -20.441406 10.609375 -21.171875 C 11.890625 -21.679688 13.113281 -21.96875 14.28125 -22.03125 C 15.457031 -22.09375 16.453125 -21.910156 17.265625 -21.484375 C 18.753906 -20.765625 19.566406 -19.632812 19.703125 -18.09375 C 19.785156 -16.988281 19.472656 -15.835938 18.765625 -14.640625 C 18.066406 -13.453125 17.035156 -12.320312 15.671875 -11.25 C 13.578125 -9.71875 11.613281 -8.648438 9.78125 -8.046875 C 7.945312 -7.453125 6.457031 -7.113281 5.3125 -7.03125 C 5.476562 -6.519531 5.671875 -6.050781 5.890625 -5.625 C 6.609375 -4.4375 7.671875 -3.753906 9.078125 -3.578125 C 10.617188 -3.328125 12.023438 -3.507812 13.296875 -4.125 C 14.578125 -4.738281 15.625 -5.410156 16.4375 -6.140625 Z M 5.8125 -12.40625 C 5.519531 -11.675781 5.332031 -10.929688 5.25 -10.171875 C 6.1875 -10.296875 7.410156 -10.601562 8.921875 -11.09375 C 10.429688 -11.582031 12.039062 -12.488281 13.75 -13.8125 C 14.769531 -14.582031 15.492188 -15.328125 15.921875 -16.046875 C 16.347656 -16.773438 16.5625 -17.375 16.5625 -17.84375 C 16.519531 -17.925781 16.457031 -18.050781 16.375 -18.21875 C 16.289062 -18.394531 16.097656 -18.546875 15.796875 -18.671875 C 15.585938 -18.796875 15.242188 -18.859375 14.765625 -18.859375 C 14.390625 -18.859375 13.941406 -18.804688 13.421875 -18.703125 C 12.910156 -18.597656 12.359375 -18.441406 11.765625 -18.234375 C 10.359375 -17.671875 9.128906 -16.878906 8.078125 -15.859375 C 7.035156 -14.835938 6.28125 -13.6875 5.8125 -12.40625 Z M 5.8125 -12.40625 "/></g></g></g><g fill="#000000" fill-opacity="1"><g transform="translate(322.979714, 56.603447)"><g><path d="M 6.65625 -21.8125 C 7.082031 -21.726562 7.421875 -21.503906 7.671875 -21.140625 C 7.929688 -20.773438 8.019531 -20.378906 7.9375 -19.953125 L 4.546875 -0.703125 C 4.367188 0.191406 3.851562 0.640625 3 0.640625 C 2.914062 0.640625 2.8125 0.640625 2.6875 0.640625 C 2.257812 0.554688 1.925781 0.332031 1.6875 -0.03125 C 1.457031 -0.394531 1.363281 -0.789062 1.40625 -1.21875 L 4.796875 -20.53125 C 4.878906 -20.957031 5.101562 -21.285156 5.46875 -21.515625 C 5.832031 -21.753906 6.226562 -21.851562 6.65625 -21.8125 Z M 7.9375 -34.15625 C 8.488281 -34.15625 8.96875 -33.960938 9.375 -33.578125 C 9.78125 -33.191406 9.984375 -32.722656 9.984375 -32.171875 C 9.984375 -31.617188 9.78125 -31.140625 9.375 -30.734375 C 8.96875 -30.328125 8.488281 -30.125 7.9375 -30.125 C 7.375 -30.125 6.898438 -30.328125 6.515625 -30.734375 C 6.140625 -31.140625 5.953125 -31.617188 5.953125 -32.171875 C 5.953125 -32.722656 6.140625 -33.191406 6.515625 -33.578125 C 6.898438 -33.960938 7.375 -34.15625 7.9375 -34.15625 Z M 7.9375 -34.15625 "/></g></g></g><g fill="#000000" fill-opacity="1"><g transform="translate(332.316307, 56.603447)"><g><path d="M 7.484375 -18.15625 C 7.054688 -17.945312 6.773438 -17.722656 6.640625 -17.484375 C 6.515625 -17.253906 6.453125 -17.03125 6.453125 -16.8125 C 6.328125 -16.132812 6.671875 -15.503906 7.484375 -14.921875 C 8.296875 -14.347656 9.617188 -13.660156 11.453125 -12.859375 C 13.023438 -12.171875 14.21875 -11.429688 15.03125 -10.640625 C 15.84375 -9.859375 16.394531 -9.101562 16.6875 -8.375 C 16.988281 -7.65625 17.160156 -7.0625 17.203125 -6.59375 C 17.328125 -4.757812 16.601562 -3.328125 15.03125 -2.296875 C 13.582031 -1.398438 11.984375 -0.953125 10.234375 -0.953125 C 9.421875 -0.953125 8.65625 -1.039062 7.9375 -1.21875 C 5.207031 -1.9375 3.140625 -3.660156 1.734375 -6.390625 C 1.515625 -6.773438 1.46875 -7.179688 1.59375 -7.609375 C 1.726562 -8.035156 1.984375 -8.332031 2.359375 -8.5 C 2.742188 -8.71875 3.148438 -8.757812 3.578125 -8.625 C 4.003906 -8.5 4.304688 -8.242188 4.484375 -7.859375 C 5.503906 -5.941406 6.910156 -4.75 8.703125 -4.28125 C 10.359375 -3.851562 11.890625 -4.085938 13.296875 -4.984375 C 13.859375 -5.328125 14.113281 -5.773438 14.0625 -6.328125 C 14.019531 -6.972656 13.65625 -7.613281 12.96875 -8.25 C 12.289062 -8.882812 11.359375 -9.460938 10.171875 -9.984375 C 9.054688 -10.492188 7.929688 -11.054688 6.796875 -11.671875 C 5.671875 -12.285156 4.753906 -13.050781 4.046875 -13.96875 C 3.347656 -14.882812 3.109375 -16.003906 3.328125 -17.328125 C 3.578125 -18.953125 4.472656 -20.144531 6.015625 -20.90625 C 7.296875 -21.59375 8.773438 -21.90625 10.453125 -21.84375 C 12.140625 -21.78125 13.535156 -21.492188 14.640625 -20.984375 C 16.390625 -20.128906 17.691406 -19.164062 18.546875 -18.09375 C 18.804688 -17.757812 18.898438 -17.378906 18.828125 -16.953125 C 18.765625 -16.523438 18.566406 -16.179688 18.234375 -15.921875 C 17.890625 -15.628906 17.503906 -15.515625 17.078125 -15.578125 C 16.648438 -15.640625 16.304688 -15.84375 16.046875 -16.1875 C 15.835938 -16.394531 15.53125 -16.664062 15.125 -17 C 14.71875 -17.34375 14.109375 -17.707031 13.296875 -18.09375 C 12.578125 -18.4375 11.617188 -18.628906 10.421875 -18.671875 C 9.234375 -18.710938 8.253906 -18.539062 7.484375 -18.15625 Z M 7.484375 -18.15625 "/></g></g></g><g fill="#000000" fill-opacity="1"><g transform="translate(352.39636, 56.603447)"><g><path d="M 7.484375 -18.15625 C 7.054688 -17.945312 6.773438 -17.722656 6.640625 -17.484375 C 6.515625 -17.253906 6.453125 -17.03125 6.453125 -16.8125 C 6.328125 -16.132812 6.671875 -15.503906 7.484375 -14.921875 C 8.296875 -14.347656 9.617188 -13.660156 11.453125 -12.859375 C 13.023438 -12.171875 14.21875 -11.429688 15.03125 -10.640625 C 15.84375 -9.859375 16.394531 -9.101562 16.6875 -8.375 C 16.988281 -7.65625 17.160156 -7.0625 17.203125 -6.59375 C 17.328125 -4.757812 16.601562 -3.328125 15.03125 -2.296875 C 13.582031 -1.398438 11.984375 -0.953125 10.234375 -0.953125 C 9.421875 -0.953125 8.65625 -1.039062 7.9375 -1.21875 C 5.207031 -1.9375 3.140625 -3.660156 1.734375 -6.390625 C 1.515625 -6.773438 1.46875 -7.179688 1.59375 -7.609375 C 1.726562 -8.035156 1.984375 -8.332031 2.359375 -8.5 C 2.742188 -8.71875 3.148438 -8.757812 3.578125 -8.625 C 4.003906 -8.5 4.304688 -8.242188 4.484375 -7.859375 C 5.503906 -5.941406 6.910156 -4.75 8.703125 -4.28125 C 10.359375 -3.851562 11.890625 -4.085938 13.296875 -4.984375 C 13.859375 -5.328125 14.113281 -5.773438 14.0625 -6.328125 C 14.019531 -6.972656 13.65625 -7.613281 12.96875 -8.25 C 12.289062 -8.882812 11.359375 -9.460938 10.171875 -9.984375 C 9.054688 -10.492188 7.929688 -11.054688 6.796875 -11.671875 C 5.671875 -12.285156 4.753906 -13.050781 4.046875 -13.96875 C 3.347656 -14.882812 3.109375 -16.003906 3.328125 -17.328125 C 3.578125 -18.953125 4.472656 -20.144531 6.015625 -20.90625 C 7.296875 -21.59375 8.773438 -21.90625 10.453125 -21.84375 C 12.140625 -21.78125 13.535156 -21.492188 14.640625 -20.984375 C 16.390625 -20.128906 17.691406 -19.164062 18.546875 -18.09375 C 18.804688 -17.757812 18.898438 -17.378906 18.828125 -16.953125 C 18.765625 -16.523438 18.566406 -16.179688 18.234375 -15.921875 C 17.890625 -15.628906 17.503906 -15.515625 17.078125 -15.578125 C 16.648438 -15.640625 16.304688 -15.84375 16.046875 -16.1875 C 15.835938 -16.394531 15.53125 -16.664062 15.125 -17 C 14.71875 -17.34375 14.109375 -17.707031 13.296875 -18.09375 C 12.578125 -18.4375 11.617188 -18.628906 10.421875 -18.671875 C 9.234375 -18.710938 8.253906 -18.539062 7.484375 -18.15625 Z M 7.484375 -18.15625 "/></g></g></g></svg>